<svg xmlns="http://www.w3.org/2000/svg" xmlns:xlink="http://www.w3.org/1999/xlink" width="0" height="0" style="display:none;"><symbol viewBox="0 0 16 16" id="sf-font-ai-search-sparkle"><path fill="currentColor" fill-rule="evenodd" clip-rule="evenodd" d="M4.09328 0.310547C5.19397 -0.0583245 6.37858 -0.0992068 7.50246 0.191406L7.25344 1.15332C6.31567 0.910834 5.32712 0.945145 4.40871 1.25293C3.49045 1.56074 2.68083 2.12822 2.07863 2.88672C1.47636 3.64532 1.10765 4.56307 1.01613 5.52734C0.924712 6.49131 1.11444 7.46121 1.56301 8.31934C2.01182 9.17769 2.70035 9.88822 3.54445 10.3633C4.38847 10.8383 5.35234 11.0578 6.31887 10.9961C7.28551 10.9344 8.21393 10.5932 8.99074 10.0146C9.76739 9.43608 10.3599 8.64468 10.6958 7.73633L11.6275 8.08105C11.3515 8.82731 10.931 9.50744 10.3941 10.085L14.815 15.3408L14.0503 15.9844L9.65285 10.7578C9.62988 10.7755 9.60774 10.7942 9.58449 10.8115C8.65351 11.505 7.54083 11.9143 6.38234 11.9883C5.2239 12.0622 4.06875 11.7978 3.05715 11.2285C2.04565 10.6592 1.22098 9.80884 0.683125 8.78027C0.14524 7.75156 -0.0828085 6.58827 0.0268746 5.43262C0.136633 4.27713 0.579579 3.17857 1.30129 2.26953C2.02309 1.36039 2.99261 0.679418 4.09328 0.310547Z M10.6997 0C10.7297 0 10.7598 0.0299039 10.7798 0.0996094C11.2698 1.41961 12.3099 2.48047 13.6099 2.98047C13.6795 3.01031 13.7102 3.02982 13.7105 3.05957C13.7105 3.08957 13.6799 3.10966 13.6099 3.13965C12.31 3.62961 11.2699 4.69969 10.7798 6.01953C10.7498 6.07953 10.7297 6.12012 10.6997 6.12012C10.6698 6.11994 10.6396 6.08932 10.6196 6.01953C10.1296 4.69978 9.0894 3.63958 7.78957 3.13965C7.71992 3.10976 7.68996 3.0895 7.68996 3.05957C7.69025 3.02988 7.72028 3.0102 7.78957 2.98047C9.08957 2.49047 10.1296 1.41961 10.6196 0.0996094C10.6487 0.0417038 10.6966 0.00255386 10.6997 0Z"></path></symbol><symbol id="sf-font-align-center"></symbol><symbol id="sf-font-align-left"></symbol><symbol id="sf-font-align-right"></symbol><symbol id="sf-font-at"></symbol><symbol id="sf-font-bold"></symbol><symbol id="sf-font-breadcrumb"></symbol><symbol id="sf-font-broken-link"></symbol><symbol id="sf-font-button"></symbol><symbol id="sf-font-call-to-action"></symbol><symbol id="sf-font-captcha"></symbol><symbol id="sf-font-chart"></symbol><symbol id="sf-font-chat"></symbol><symbol id="sf-font-check"></symbol><symbol id="sf-font-checkboxes"></symbol><symbol id="sf-font-classification"></symbol><symbol id="sf-font-code"></symbol><symbol id="sf-font-column"></symbol><symbol id="sf-font-content-block"></symbol><symbol id="sf-font-content-list"></symbol><symbol id="sf-font-content-section"></symbol><symbol viewBox="0 0 26 20" id="sf-font-content-suggestions"><path fill-rule="evenodd" clip-rule="evenodd" fill="#777777" d="M14.3682 0C18.4158 0 21.6971 3.27935 21.6973 7.32617V7.94336L21.6602 7.96094C21.467 10.2172 20.2381 12.2696 18.3115 13.501L18.3125 13.502C18.2705 13.5292 18.2443 13.577 18.2441 13.6289V16.3916C18.2441 17.9742 16.9585 19.2596 15.375 19.2598H13.3623C11.7799 19.2594 10.4932 17.978 10.4932 16.3916V13.625L10.4883 13.5898C10.4794 13.5554 10.4575 13.5244 10.4238 13.5029L10.4229 13.502C9.61259 12.9835 8.92674 12.3195 8.3877 11.5576L9.06836 10.8252C9.31379 10.578 9.56509 10.3366 9.82227 10.1016C10.2376 10.7817 10.805 11.3715 11.498 11.8154C12.1104 12.2056 12.4877 12.8785 12.4932 13.6104V13.9277H16.2441V13.6289C16.2443 12.901 16.6126 12.2195 17.2275 11.8223L17.2324 11.8193C18.7656 10.8409 19.6938 9.14754 19.6914 7.33008L19.6904 7.07422C19.5588 4.24963 17.2274 2 14.3682 2C12.5195 2.0003 10.8939 2.94265 9.93848 4.37109L8.55078 2.87695C9.88982 1.12923 11.9958 0.000280226 14.3682 0ZM12.4932 15.9277V16.3916C12.4932 16.8704 12.8815 17.2594 13.3623 17.2598H15.375C15.8549 17.2596 16.2441 16.8686 16.2441 16.3916V15.9277H12.4932Z M6 1.12988C6.05335 1.13003 6.1053 1.19971 6.1543 1.33105C7.12768 3.91681 9.21341 6.00186 11.7998 6.97461C11.9305 7.02483 12 7.07645 12 7.12988C12 7.18331 11.9305 7.236 11.7998 7.28516C9.21232 8.2579 7.12768 10.3419 6.1543 12.9287C6.1053 13.0601 6.05335 13.1297 6 13.1299C5.94659 13.1299 5.89378 13.0602 5.84473 12.9287C4.87133 10.3431 2.78645 8.2579 0.200195 7.28516C0.0694011 7.23491 1.70509e-06 7.18333 0 7.12988C0 7.07643 0.0693995 7.02378 0.200195 6.97461C2.78754 6.00187 4.87133 3.91773 5.84473 1.33105C5.89378 1.19957 5.94659 1.12988 6 1.12988ZM6 5.12988C5.98224 5.12988 5.96456 5.15266 5.94824 5.19629C5.62381 6.05857 4.92889 6.75388 4.06641 7.07812C4.02307 7.09447 4 7.11212 4 7.12988C4.00017 7.14759 4.02315 7.16499 4.06641 7.18164C4.92845 7.50586 5.62378 8.20068 5.94824 9.0625C5.96459 9.10633 5.9822 9.12988 6 9.12988C6.01779 9.12986 6.03542 9.1063 6.05176 9.0625C6.37622 8.20033 7.07119 7.50586 7.93359 7.18164C7.97682 7.16535 7.99983 7.14759 8 7.12988C8 7.11213 7.97689 7.09482 7.93359 7.07812C7.07148 6.75388 6.37619 6.05821 6.05176 5.19629C6.03545 5.15267 6.01775 5.12991 6 5.12988Z"></path></symbol><symbol id="sf-font-copy"></symbol><symbol id="sf-font-date-time"></symbol><symbol id="sf-font-diagram"></symbol><symbol id="sf-font-document-insert"></symbol><symbol id="sf-font-document"></symbol><symbol id="sf-font-dropdown"></symbol><symbol id="sf-font-droplet"></symbol><symbol id="sf-font-ellipsis"></symbol><symbol id="sf-font-error"></symbol><symbol id="sf-font-external-link"></symbol><symbol id="sf-font-favorites"></symbol><symbol id="sf-font-file-upload"></symbol><symbol id="sf-font-form"></symbol><symbol id="sf-font-heading"></symbol><symbol id="sf-font-history"></symbol><symbol id="sf-font-image"></symbol><symbol id="sf-font-important"></symbol><symbol id="sf-font-italic"></symbol><symbol id="sf-font-knowledge"></symbol><symbol id="sf-font-language"></symbol><symbol viewBox="0 0 16 15" id="sf-font-layout-icon">
<rect fill="currentcolor" width="7" height="8"></rect>
<rect y="10" fill="currentcolor" width="7" height="5"></rect>
<rect x="9" fill="currentcolor" width="7" height="15"></rect>
</symbol><symbol id="sf-font-link"></symbol><symbol id="sf-font-location"></symbol><symbol id="sf-font-login"></symbol><symbol id="sf-font-mail"></symbol><symbol id="sf-font-manager"></symbol><symbol id="sf-font-multiple-choice"></symbol><symbol id="sf-font-navigation"></symbol><symbol id="sf-font-notification"></symbol><symbol id="sf-font-number"></symbol><symbol id="sf-font-ordered-list"></symbol><symbol id="sf-font-paragraph-textbox"></symbol><symbol id="sf-font-paragraph"></symbol><symbol id="sf-font-password"></symbol><symbol id="sf-font-paste"></symbol><symbol id="sf-font-pencil"></symbol><symbol id="sf-font-profile"></symbol><symbol id="sf-font-question"></symbol><symbol id="sf-font-recommendation"></symbol><symbol id="sf-font-registration"></symbol><symbol id="sf-font-restricted"></symbol><symbol id="sf-font-rich-text"></symbol><symbol id="sf-font-search"></symbol><symbol id="sf-font-section"></symbol><symbol id="sf-font-settings"></symbol><symbol id="sf-font-short-text"></symbol><symbol id="sf-font-sparkles"></symbol><symbol id="sf-font-textbox"></symbol><symbol id="sf-font-unordered-list"></symbol><symbol id="sf-font-video"></symbol><symbol id="sf-font-yes-no"></symbol></svg>